<svg width="30" height="27" viewBox="0 0 30 27" fill="none" xmlns="http://www.w3.org/2000/svg">
<path d="M25.9485 4.38101C25.3173 3.74954 24.5679 3.24861 23.7431 2.90684C22.9182 2.56507 22.0341 2.38916 21.1413 2.38916C20.2485 2.38916 19.3644 2.56507 18.5396 2.90684C17.7147 3.24861 16.9653 3.74954 16.3342 4.38101L15.0242 5.69093L13.7143 4.38101C12.4394 3.10607 10.7102 2.38982 8.90717 2.38982C7.10414 2.38982 5.37495 3.10607 4.10001 4.38101C2.82508 5.65595 2.10883 7.38513 2.10883 9.18816C2.10883 10.9912 2.82508 12.7204 4.10001 13.9953L5.40993 15.3052L15.0242 24.9195L24.6385 15.3052L25.9485 13.9953C26.5799 13.3641 27.0809 12.6147 27.4226 11.7899C27.7644 10.9651 27.9403 10.081 27.9403 9.18816C27.9403 8.29533 27.7644 7.41125 27.4226 6.58642C27.0809 5.7616 26.5799 5.01219 25.9485 4.38101Z" stroke="#CDDDE2" stroke-width="2.80976" stroke-linecap="round" stroke-linejoin="round"/>
</svg>
