<svg width="8" height="14" viewBox="0 0 8 14" fill="none" xmlns="http://www.w3.org/2000/svg">
<path d="M1.60193 0.500425C1.31955 0.197383 0.84497 0.180633 0.541929 0.463013C0.238887 0.745393 0.222137 1.21997 0.504517 1.52301L1.60193 0.500425ZM6.52916 6.88833L7.07271 7.4051L7.55911 6.8935L7.07786 6.37704L6.52916 6.88833ZM0.509668 12.1313C0.224264 12.4315 0.236255 12.9062 0.536451 13.1916C0.836647 13.477 1.31137 13.465 1.59677 13.1649L0.509668 12.1313ZM0.504517 1.52301L5.98045 7.39963L7.07786 6.37704L1.60193 0.500425L0.504517 1.52301ZM5.9856 6.37156L0.509668 12.1313L1.59677 13.1649L7.07271 7.4051L5.9856 6.37156Z" fill="#1A1818"/>
</svg>
