<svg width="24" height="24" viewBox="0 0 24 24" fill="none" xmlns="http://www.w3.org/2000/svg">
<path d="M13.398 18.5003C13.6804 18.8033 14.1549 18.8201 14.458 18.5377C14.761 18.2553 14.7778 17.7808 14.4954 17.4777L13.398 18.5003ZM8.47075 12.1124L7.9272 11.5956L7.4408 12.1072L7.92204 12.6237L8.47075 12.1124ZM14.4902 6.86942C14.7756 6.56922 14.7637 6.0945 14.4635 5.8091C14.1633 5.52369 13.6885 5.53569 13.4031 5.83588L14.4902 6.86942ZM14.4954 17.4777L9.01946 11.6011L7.92204 12.6237L13.398 18.5003L14.4954 17.4777ZM9.0143 12.6292L14.4902 6.86942L13.4031 5.83588L7.9272 11.5956L9.0143 12.6292Z" fill="#1A1818"/>
</svg>
