<svg width="22" height="22" viewBox="0 0 22 22" fill="none" xmlns="http://www.w3.org/2000/svg">
<path d="M8.24998 20.1666C8.75624 20.1666 9.16665 19.7562 9.16665 19.2499C9.16665 18.7437 8.75624 18.3333 8.24998 18.3333C7.74372 18.3333 7.33331 18.7437 7.33331 19.2499C7.33331 19.7562 7.74372 20.1666 8.24998 20.1666Z" stroke="#1A1818" stroke-width="1.8" stroke-linecap="round" stroke-linejoin="round"/>
<path d="M18.3334 20.1666C18.8396 20.1666 19.25 19.7562 19.25 19.2499C19.25 18.7437 18.8396 18.3333 18.3334 18.3333C17.8271 18.3333 17.4167 18.7437 17.4167 19.2499C17.4167 19.7562 17.8271 20.1666 18.3334 20.1666Z" stroke="#1A1818" stroke-width="1.8" stroke-linecap="round" stroke-linejoin="round"/>
<path d="M0.916687 0.916748H4.58335L7.04002 13.1909C7.12384 13.6129 7.35344 13.992 7.6886 14.2619C8.02377 14.5317 8.44316 14.675 8.87335 14.6667H17.7834C18.2135 14.675 18.6329 14.5317 18.9681 14.2619C19.3033 13.992 19.5329 13.6129 19.6167 13.1909L21.0834 5.50008H5.50002" stroke="#1A1818" stroke-width="1.8" stroke-linecap="round" stroke-linejoin="round"/>
</svg>
