<svg width="18" height="16" viewBox="0 0 18 16" fill="none" xmlns="http://www.w3.org/2000/svg">
<path d="M8.55735 0.424737C8.74526 0.0685852 9.25533 0.0685861 9.44323 0.424738L11.6407 4.58969C11.7132 4.72703 11.8452 4.82299 11.9982 4.84947L16.6384 5.65233C17.0352 5.72098 17.1928 6.20609 16.9122 6.49486L13.6301 9.8718C13.5219 9.98316 13.4714 10.1384 13.4935 10.2921L14.1638 14.9533C14.2212 15.3519 13.8085 15.6517 13.4471 15.474L9.22127 13.3961C9.08192 13.3276 8.91866 13.3276 8.77931 13.3961L4.55343 15.474C4.19207 15.6517 3.77942 15.3519 3.83674 14.9533L4.50706 10.2921C4.52916 10.1384 4.47871 9.98316 4.37048 9.8718L1.08843 6.49486C0.807776 6.20609 0.965397 5.72098 1.36218 5.65233L6.00234 4.84947C6.15535 4.82299 6.28743 4.72703 6.35989 4.58969L8.55735 0.424737Z" fill="#FFD78A"/>
</svg>
