<svg aria-hidden="true" style="position: absolute; width: 0; height: 0; overflow: hidden;" version="1.1" xmlns="http://www.w3.org/2000/svg" xmlns:xlink="http://www.w3.org/1999/xlink">
<defs>
<symbol id="icon-Heart" viewBox="0 0 32 32">
<path  stroke="#cddde2" style="stroke: var(--color1, #cddde2)" stroke-linejoin="round" stroke-linecap="round" stroke-miterlimit="4" stroke-width="2.9971" d="M27.678 6.273c-0.673-0.674-1.473-1.208-2.352-1.572s-1.823-0.552-2.775-0.552-1.895 0.188-2.775 0.552c-0.88 0.365-1.679 0.899-2.352 1.572l-1.397 1.397-1.397-1.397c-1.36-1.36-3.204-2.124-5.128-2.124s-3.768 0.764-5.128 2.124c-1.36 1.36-2.124 3.204-2.124 5.128s0.764 3.768 2.124 5.128l11.652 11.652 11.653-11.652c0.674-0.673 1.208-1.473 1.572-2.352s0.552-1.823 0.552-2.775-0.188-1.895-0.552-2.775c-0.364-0.88-0.899-1.679-1.572-2.352z"></path>
</symbol>
<symbol id="icon-Login" viewBox="0 0 32 32">
<path stroke-linejoin="round" stroke-linecap="round" stroke-miterlimit="4" stroke-width="1.3091" d="M23.273 23.273v-1.455c0-0.772-0.351-1.512-0.976-2.057s-1.473-0.852-2.357-0.852h-7.88c-0.884 0-1.732 0.306-2.357 0.852s-0.976 1.285-0.976 2.057v1.455"></path>
<path stroke-linejoin="round" stroke-linecap="round" stroke-miterlimit="4" stroke-width="1.3091" d="M16 16c2.008 0 3.636-1.628 3.636-3.636s-1.628-3.636-3.636-3.636c-2.008 0-3.636 1.628-3.636 3.636s1.628 3.636 3.636 3.636z"></path>
</symbol>
<symbol id="icon-shopping-cart" viewBox="0 0 32 32">
<path stroke-linejoin="round" stroke-linecap="round" stroke-miterlimit="4" stroke-width="2.6182" d="M12 29.333c0.736 0 1.333-0.597 1.333-1.333s-0.597-1.333-1.333-1.333-1.333 0.597-1.333 1.333c0 0.736 0.597 1.333 1.333 1.333z"></path>
<path stroke-linejoin="round" stroke-linecap="round" stroke-miterlimit="4" stroke-width="2.6182" d="M26.667 29.333c0.736 0 1.333-0.597 1.333-1.333s-0.597-1.333-1.333-1.333c-0.736 0-1.333 0.597-1.333 1.333s0.597 1.333 1.333 1.333z"></path>
<path stroke-linejoin="round" stroke-linecap="round" stroke-miterlimit="4" stroke-width="2.6182" d="M1.333 1.333h5.333l3.573 17.853c0.122 0.614 0.456 1.165 0.943 1.558s1.098 0.601 1.723 0.589h12.96c0.626 0.012 1.236-0.196 1.723-0.589s0.822-0.944 0.943-1.558l2.133-11.187h-22.667"></path>
</symbol>
<symbol id="icon-Star-1" viewBox="0 0 32 32">
<path   d="M15.213 2.533c0.334-0.633 1.241-0.633 1.575 0l3.907 7.404c0.129 0.244 0.364 0.415 0.636 0.462l8.249 1.427c0.705 0.122 0.986 0.984 0.487 1.498l-5.835 6.003c-0.192 0.198-0.282 0.474-0.243 0.747l1.192 8.287c0.102 0.709-0.632 1.242-1.274 0.926l-7.513-3.694c-0.248-0.122-0.538-0.122-0.786 0l-7.513 3.694c-0.642 0.316-1.376-0.217-1.274-0.926l1.192-8.287c0.039-0.273-0.050-0.549-0.243-0.747l-5.835-6.003c-0.499-0.513-0.219-1.376 0.487-1.498l8.249-1.427c0.272-0.047 0.507-0.218 0.636-0.462l3.907-7.404z"></path>
</symbol>
<symbol id="icon-Star-6" viewBox="0 0 32 32">
<path fill="#ffd78a" style="fill: var(--color2, #ffd78a)" d="M14.224 30.948l8.334-4.098c0.343-0.168 0.56-0.517 0.56-0.899v-25.268c0-0.391-0.524-0.521-0.706-0.175l-4.575 8.671c-0.145 0.275-0.409 0.467-0.715 0.52l-9.28 1.606c-0.794 0.137-1.109 1.108-0.548 1.685l6.564 6.754c0.216 0.223 0.317 0.533 0.273 0.841l-1.341 9.322c-0.115 0.797 0.711 1.397 1.433 1.041z"></path>
</symbol>
</defs>
</svg>
